<svg version="1.2" xmlns="http://www.w3.org/2000/svg" viewBox="0 0 1920 460" width="1920" height="460">
	<title>settings-svgrepo-com-svg</title>
	<style>
		.s0 { fill: #000000 } 
	</style>
	<path id="Techlab" class="s0" aria-label="Techlab"  d="m516.5 321v-168h72.9v-42h-188.4v42h73.5v168zm272.1 0v-42h-136.2v-41.7h125.7v-42h-125.7v-42.3h136.2v-42h-178.2v210zm194.7 0l20.7-20.7v-42h-41.7v20.7h-104.7v-126h104.7v21h41.7v-41.7l-20.7-21.3h-147l-20.7 21.3v168l20.7 20.7zm89.7 0v-83.7h104.7v83.7h41.7v-210h-41.7v84.3h-104.7v-84.3h-42v210zm176.4-210v210h178.2v-42h-136.2v-168zm238.2 105.3v-21l41.7-42.3h63v63.3zm0 104.7v-62.7h104.7v62.7h41.7v-210h-125.7l-62.7 63.3v146.7zm218.4-42v-41.7h104.7v41.7zm0-83.7v-42.3h104.7v42.3zm125.7 125.7l20.7-20.7v-63l-20.7-21 20.7-21v-63l-20.7-21.3h-167.7v210z"/>
	<g id="Layer">
		<path id="Layer" class="s0" d="m163.2 262.3c-8.7 7.6-14.1 18.8-14.1 31.1v40.9h-14.9c-6.4 0-11.6-5.1-11.6-11.5v-27.4q-6.6-2.3-12.9-5.3l-19.4 19.3c-4.5 4.5-11.8 4.5-16.3 0l-48.1-48.1c-4.5-4.5-4.5-11.8 0-16.3l19.4-19.3q-3-6.3-5.4-13h-27.4c-6.3 0-11.5-5.2-11.5-11.5v-68.1c0-6.3 5.2-11.5 11.5-11.5h27.4q2.4-6.6 5.4-12.9l-19.4-19.4c-4.5-4.5-4.5-11.8 0-16.3l48.1-48.1c4.5-4.5 11.8-4.5 16.3 0l19.4 19.4q6.3-3 12.9-5.4v-27.4c0-6.3 5.2-11.5 11.6-11.5h68c6.3 0 11.5 5.2 11.5 11.5v27.4q6.7 2.4 13 5.4l19.3-19.4c4.5-4.5 11.8-4.5 16.3 0l48.1 48.1c4.5 4.5 4.5 11.8 0 16.3l-19.3 19.4q3 6.3 5.3 12.9h27.4c6.4 0 11.5 5.2 11.5 11.5v17h-42.9c-11.3 0-21.6 4.5-29.1 11.9-2.7-50.2-44.4-90.1-95.1-90.1-52.5 0-95.3 42.6-95.3 95.3 0 50.7 40 92.5 90.3 95.1z"/>
		<path id="Layer" class="s0" d="m170.9 232.4c-37.4 1.5-68-28.3-68-65.2 0-36.1 29.2-65.3 65.3-65.3 37.3 0 67.4 31.4 65.1 69.3-5.8 2-11.1 5.4-15.6 9.9-40.8 40.7-42.7 41.3-46.8 51.3z"/>
		<path id="Layer" fill-rule="evenodd" class="s0" d="m459 293.4v53.3c0 6.3-5.2 11.5-11.5 11.5h-18.9q-2.2 6.3-5.1 12.4l13.3 13.3c4.5 4.5 4.5 11.8 0 16.3l-37.6 37.6c-2.3 2.3-5.2 3.4-8.2 3.4-2.9 0-5.8-1.1-8.1-3.4l-13.4-13.3q-6 2.9-12.3 5.1v18.9c0 6.3-5.2 11.5-11.6 11.5h-53.2c-6.3 0-11.5-5.2-11.5-11.5v-18.9q-6.4-2.2-12.4-5.1l-13.3 13.3c-2.3 2.3-5.2 3.4-8.2 3.4-2.9 0-5.9-1.1-8.1-3.4l-37.6-37.6c-4.5-4.5-4.5-11.8 0-16.3l13.3-13.3q-2.9-6.1-5.1-12.4h-18.9c-6.4 0-11.5-5.2-11.5-11.5v-53.3c0-6.3 5.1-11.5 11.5-11.5h18.9q2.2-6.4 5.1-12.4l-13.3-13.3c-4.5-4.5-4.5-11.8 0-16.3l37.6-37.6c2.2-2.3 5.2-3.4 8.1-3.4 3 0 5.9 1.1 8.2 3.4l13.3 13.3q6-2.9 12.4-5.1v-18.9c0-6.4 5.2-11.5 11.5-11.5h53.2c6.4 0 11.6 5.1 11.6 11.5v18.9q6.3 2.2 12.3 5.1l13.4-13.3c2.3-2.3 5.2-3.4 8.1-3.4 3 0 5.9 1.1 8.2 3.4l37.6 37.6c4.5 4.5 4.5 11.8 0 16.3l-13.3 13.3q2.9 6 5.1 12.4h18.9c6.3 0 11.5 5.2 11.5 11.5zm-55.3 26.6c0-46.6-38-84.6-84.7-84.6-46.6 0-84.6 38-84.6 84.6 0 46.7 38 84.7 84.6 84.7 46.7 0 84.7-38 84.7-84.7z"/>
		<circle id="Layer" class="s0" cx="319" cy="320" r="54.7"/>
	</g>
	<g id="Layer">
	</g>
	<g id="Layer">
	</g>
	<g id="Layer">
	</g>
	<g id="Layer">
	</g>
	<g id="Layer">
	</g>
	<g id="Layer">
	</g>
	<g id="Layer">
	</g>
	<g id="Layer">
	</g>
	<g id="Layer">
	</g>
	<g id="Layer">
	</g>
	<g id="Layer">
	</g>
	<g id="Layer">
	</g>
	<g id="Layer">
	</g>
	<g id="Layer">
	</g>
	<g id="Layer">
	</g>
</svg>